#N canvas 73 23 1242 693 10;
#X obj 248 98 metro 500;
#X obj 249 122 bng 15 250 50 0 empty empty empty 17 7 0 10 -262144
-1 -1;
#X obj 249 166 + 0;
#X floatatom 248 191 5 0 0 0 - - -, f 5;
#X msg 249 143 1;
#X obj 247 213 mod 8;
#X floatatom 247 236 5 0 0 0 - - -, f 5;
#X floatatom 289 189 5 0 0 0 - - -, f 5;
#X obj 289 143 loadbang;
#X msg 289 166 8;
#X floatatom 308 77 5 0 0 0 - - -, f 5;
#X obj 247 258 sel 0 1 2 3 4 5 6 7, f 138;
#X obj 317 425 tgl 15 0 empty empty empty 17 7 0 10 -262144 -1 -1 0
1;
#X obj 264 358 vsl 30 60 0 127 0 0 empty empty empty 0 -9 0 10 -262144
-1 -1 0 1;
#X text 13 4 maq.util.seq.pd;
#X text 13 23 8-step sequencer;
#X floatatom 264 426 5 0 0 0 - - -, f 5;
#X floatatom 264 468 5 0 0 0 - - -, f 5;
#X floatatom 241 610 5 0 0 0 - - -, f 5;
#X floatatom 317 407 5 0 0 0 - - -, f 5;
#X obj 248 56 tgl 15 0 empty empty empty 17 7 0 10 -262144 -1 -1 1
1;
#X obj 264 445 spigot 1;
#X obj 246 467 bng 15 250 50 0 empty empty empty 17 7 0 10 -262144
-1 -1;
#X floatatom 246 512 5 0 0 0 - - -, f 5;
#X text 11 39 inputs:;
#X text 13 78 metro: time between steps (ms);
#X text 12 97 array: on/off per step \, 8x 1/0;
#X text 11 116 array: value per step \, 8x 0-127;
#X obj 246 490 int;
#X obj 262 75 s -\$0;
#X text 286 608 step value;
#X obj 248 31 inlet;
#X obj 241 631 outlet;
#X floatatom 264 337 5 0 0 0 - - -, f 5;
#X obj 488 132 unpack 0 0 0 0 0 0 0 0, f 44;
#X floatatom 531 155 5 0 0 0 - - -, f 5;
#X floatatom 488 155 5 0 0 0 - - -, f 5;
#X msg 488 172 1 \$1;
#X msg 531 172 2 \$1;
#X text 15 171 send/receive:;
#X obj 246 530 s -\$4;
#X obj 241 584 r -\$4;
#X text 12 283 4: step value;
#X text 15 212 1: time between steps;
#X text 14 259 3: value per step;
#X obj 265 315 route 1;
#X obj 264 295 r -\$3;
#X floatatom 618 156 5 0 0 0 - - -, f 5;
#X floatatom 575 156 5 0 0 0 - - -, f 5;
#X floatatom 705 156 5 0 0 0 - - -, f 5;
#X floatatom 662 156 5 0 0 0 - - -, f 5;
#X floatatom 792 157 5 0 0 0 - - -, f 5;
#X floatatom 749 157 5 0 0 0 - - -, f 5;
#X msg 575 173 3 \$1;
#X msg 618 173 4 \$1;
#X msg 662 173 5 \$1;
#X msg 705 173 6 \$1;
#X msg 749 174 7 \$1;
#X msg 792 174 8 \$1;
#X obj 440 424 tgl 15 0 empty empty empty 17 7 0 10 -262144 -1 -1 0
1;
#X obj 387 357 vsl 30 60 0 127 0 0 empty empty empty 0 -9 0 10 -262144
-1 -1 0 1;
#X floatatom 387 425 5 0 0 0 - - -, f 5;
#X floatatom 387 467 5 0 0 0 - - -, f 5;
#X floatatom 440 406 5 0 0 0 - - -, f 5;
#X obj 387 444 spigot 1;
#X obj 369 466 bng 15 250 50 0 empty empty empty 17 7 0 10 -262144
-1 -1;
#X floatatom 369 511 5 0 0 0 - - -, f 5;
#X obj 369 489 int;
#X floatatom 387 336 5 0 0 0 - - -, f 5;
#X obj 369 529 s -\$4;
#X obj 387 294 r -\$3;
#X obj 388 314 route 2;
#X obj 559 416 tgl 15 0 empty empty empty 17 7 0 10 -262144 -1 -1 0
1;
#X obj 506 349 vsl 30 60 0 127 0 0 empty empty empty 0 -9 0 10 -262144
-1 -1 0 1;
#X floatatom 506 417 5 0 0 0 - - -, f 5;
#X floatatom 506 459 5 0 0 0 - - -, f 5;
#X floatatom 559 398 5 0 0 0 - - -, f 5;
#X obj 506 436 spigot 1;
#X obj 488 458 bng 15 250 50 0 empty empty empty 17 7 0 10 -262144
-1 -1;
#X floatatom 488 503 5 0 0 0 - - -, f 5;
#X obj 488 481 int;
#X floatatom 506 328 5 0 0 0 - - -, f 5;
#X obj 488 521 s -\$4;
#X obj 506 286 r -\$3;
#X obj 680 415 tgl 15 0 empty empty empty 17 7 0 10 -262144 -1 -1 0
1;
#X obj 627 348 vsl 30 60 0 127 0 0 empty empty empty 0 -9 0 10 -262144
-1 -1 0 1;
#X floatatom 627 416 5 0 0 0 - - -, f 5;
#X floatatom 627 458 5 0 0 0 - - -, f 5;
#X floatatom 680 397 5 0 0 0 - - -, f 5;
#X obj 627 435 spigot 1;
#X obj 609 457 bng 15 250 50 0 empty empty empty 17 7 0 10 -262144
-1 -1;
#X floatatom 609 502 5 0 0 0 - - -, f 5;
#X obj 609 480 int;
#X floatatom 627 327 5 0 0 0 - - -, f 5;
#X obj 609 520 s -\$4;
#X obj 627 285 r -\$3;
#X obj 507 306 route 3;
#X obj 628 305 route 4;
#X obj 800 418 tgl 15 0 empty empty empty 17 7 0 10 -262144 -1 -1 0
1;
#X obj 747 351 vsl 30 60 0 127 0 0 empty empty empty 0 -9 0 10 -262144
-1 -1 0 1;
#X floatatom 747 419 5 0 0 0 - - -, f 5;
#X floatatom 747 461 5 0 0 0 - - -, f 5;
#X floatatom 800 400 5 0 0 0 - - -, f 5;
#X obj 747 438 spigot 1;
#X obj 729 460 bng 15 250 50 0 empty empty empty 17 7 0 10 -262144
-1 -1;
#X floatatom 729 505 5 0 0 0 - - -, f 5;
#X obj 729 483 int;
#X floatatom 747 330 5 0 0 0 - - -, f 5;
#X obj 729 523 s -\$4;
#X obj 747 288 r -\$3;
#X obj 920 418 tgl 15 0 empty empty empty 17 7 0 10 -262144 -1 -1 0
1;
#X obj 867 351 vsl 30 60 0 127 0 0 empty empty empty 0 -9 0 10 -262144
-1 -1 0 1;
#X floatatom 867 419 5 0 0 0 - - -, f 5;
#X floatatom 867 461 5 0 0 0 - - -, f 5;
#X floatatom 920 400 5 0 0 0 - - -, f 5;
#X obj 867 438 spigot 1;
#X obj 849 460 bng 15 250 50 0 empty empty empty 17 7 0 10 -262144
-1 -1;
#X floatatom 849 505 5 0 0 0 - - -, f 5;
#X obj 849 483 int;
#X floatatom 867 330 5 0 0 0 - - -, f 5;
#X obj 849 523 s -\$4;
#X obj 867 288 r -\$3;
#X obj 1040 416 tgl 15 0 empty empty empty 17 7 0 10 -262144 -1 -1
0 1;
#X obj 987 349 vsl 30 60 0 127 0 0 empty empty empty 0 -9 0 10 -262144
-1 -1 0 1;
#X floatatom 987 417 5 0 0 0 - - -, f 5;
#X floatatom 987 459 5 0 0 0 - - -, f 5;
#X floatatom 1040 398 5 0 0 0 - - -, f 5;
#X obj 987 436 spigot 1;
#X obj 969 458 bng 15 250 50 0 empty empty empty 17 7 0 10 -262144
-1 -1;
#X floatatom 969 503 5 0 0 0 - - -, f 5;
#X obj 969 481 int;
#X floatatom 987 328 5 0 0 0 - - -, f 5;
#X obj 969 521 s -\$4;
#X obj 987 286 r -\$3;
#X obj 1161 415 tgl 15 0 empty empty empty 17 7 0 10 -262144 -1 -1
0 1;
#X obj 1108 348 vsl 30 60 0 127 0 0 empty empty empty 0 -9 0 10 -262144
-1 -1 0 1;
#X floatatom 1108 416 5 0 0 0 - - -, f 5;
#X floatatom 1108 458 5 0 0 0 - - -, f 5;
#X floatatom 1161 397 5 0 0 0 - - -, f 5;
#X obj 1108 435 spigot 1;
#X obj 1090 457 bng 15 250 50 0 empty empty empty 17 7 0 10 -262144
-1 -1;
#X floatatom 1090 502 5 0 0 0 - - -, f 5;
#X obj 1090 480 int;
#X floatatom 1108 327 5 0 0 0 - - -, f 5;
#X obj 1090 520 s -\$4;
#X obj 1108 285 r -\$3;
#X obj 748 308 route 5;
#X obj 868 308 route 6;
#X obj 988 306 route 7;
#X obj 1109 305 route 8;
#X obj 293 12 loadbang;
#X obj 317 359 r -\$2;
#X obj 317 381 route 1;
#X obj 439 357 r -\$2;
#X obj 559 351 r -\$2;
#X obj 439 379 route 2;
#X obj 559 373 route 3;
#X obj 680 351 r -\$2;
#X obj 800 356 r -\$2;
#X obj 920 350 r -\$2;
#X obj 1042 355 r -\$2;
#X obj 1161 350 r -\$2;
#X obj 680 373 route 4;
#X obj 800 378 route 5;
#X obj 920 372 route 6;
#X obj 1042 377 route 7;
#X obj 1161 372 route 8;
#X msg 293 32 1;
#X text 17 234 2: on/off per step;
#X text 16 192 0: on/off metro;
#X text 13 59 metro: 1 on / 0 off;
#X obj 308 54 inlet;
#X obj 865 136 unpack 0 0 0 0 0 0 0 0, f 44;
#X floatatom 908 159 5 0 0 0 - - -, f 5;
#X floatatom 865 159 5 0 0 0 - - -, f 5;
#X msg 865 176 1 \$1;
#X msg 908 176 2 \$1;
#X obj 865 197 s -\$3;
#X obj 908 197 s -\$3;
#X floatatom 995 160 5 0 0 0 - - -, f 5;
#X floatatom 952 160 5 0 0 0 - - -, f 5;
#X obj 952 198 s -\$3;
#X obj 995 198 s -\$3;
#X floatatom 1082 160 5 0 0 0 - - -, f 5;
#X floatatom 1039 160 5 0 0 0 - - -, f 5;
#X obj 1039 198 s -\$3;
#X obj 1082 198 s -\$3;
#X floatatom 1169 161 5 0 0 0 - - -, f 5;
#X floatatom 1126 161 5 0 0 0 - - -, f 5;
#X obj 1126 199 s -\$3;
#X obj 1169 199 s -\$3;
#X msg 952 177 3 \$1;
#X msg 995 177 4 \$1;
#X msg 1039 177 5 \$1;
#X msg 1082 177 6 \$1;
#X msg 1126 178 7 \$1;
#X msg 1169 178 8 \$1;
#X obj 488 193 s -\$2;
#X obj 531 193 s -\$2;
#X obj 575 194 s -\$2;
#X obj 618 194 s -\$2;
#X obj 662 194 s -\$2;
#X obj 705 194 s -\$2;
#X obj 749 195 s -\$2;
#X obj 792 195 s -\$2;
#X obj 487 104 inlet;
#X obj 864 108 inlet;
#X obj 329 97 s -\$1;
#X connect 0 0 1 0;
#X connect 1 0 4 0;
#X connect 2 0 3 0;
#X connect 3 0 5 0;
#X connect 4 0 2 0;
#X connect 5 0 6 0;
#X connect 6 0 2 1;
#X connect 6 0 11 0;
#X connect 7 0 5 1;
#X connect 8 0 9 0;
#X connect 9 0 7 0;
#X connect 10 0 0 1;
#X connect 10 0 207 0;
#X connect 11 0 22 0;
#X connect 11 1 65 0;
#X connect 11 2 78 0;
#X connect 11 3 90 0;
#X connect 11 4 104 0;
#X connect 11 5 116 0;
#X connect 11 6 128 0;
#X connect 11 7 140 0;
#X connect 12 0 21 1;
#X connect 13 0 16 0;
#X connect 16 0 21 0;
#X connect 17 0 28 1;
#X connect 18 0 32 0;
#X connect 19 0 12 0;
#X connect 20 0 29 0;
#X connect 20 0 0 0;
#X connect 21 0 17 0;
#X connect 22 0 28 0;
#X connect 23 0 40 0;
#X connect 28 0 23 0;
#X connect 31 0 20 0;
#X connect 33 0 13 0;
#X connect 34 0 36 0;
#X connect 34 1 35 0;
#X connect 34 2 48 0;
#X connect 34 3 47 0;
#X connect 34 4 50 0;
#X connect 34 5 49 0;
#X connect 34 6 52 0;
#X connect 34 7 51 0;
#X connect 35 0 38 0;
#X connect 36 0 37 0;
#X connect 37 0 197 0;
#X connect 38 0 198 0;
#X connect 41 0 18 0;
#X connect 45 0 33 0;
#X connect 46 0 45 0;
#X connect 47 0 54 0;
#X connect 48 0 53 0;
#X connect 49 0 56 0;
#X connect 50 0 55 0;
#X connect 51 0 58 0;
#X connect 52 0 57 0;
#X connect 53 0 199 0;
#X connect 54 0 200 0;
#X connect 55 0 201 0;
#X connect 56 0 202 0;
#X connect 57 0 203 0;
#X connect 58 0 204 0;
#X connect 59 0 64 1;
#X connect 60 0 61 0;
#X connect 61 0 64 0;
#X connect 62 0 67 1;
#X connect 63 0 59 0;
#X connect 64 0 62 0;
#X connect 65 0 67 0;
#X connect 66 0 69 0;
#X connect 67 0 66 0;
#X connect 68 0 60 0;
#X connect 70 0 71 0;
#X connect 71 0 68 0;
#X connect 72 0 77 1;
#X connect 73 0 74 0;
#X connect 74 0 77 0;
#X connect 75 0 80 1;
#X connect 76 0 72 0;
#X connect 77 0 75 0;
#X connect 78 0 80 0;
#X connect 79 0 82 0;
#X connect 80 0 79 0;
#X connect 81 0 73 0;
#X connect 83 0 96 0;
#X connect 84 0 89 1;
#X connect 85 0 86 0;
#X connect 86 0 89 0;
#X connect 87 0 92 1;
#X connect 88 0 84 0;
#X connect 89 0 87 0;
#X connect 90 0 92 0;
#X connect 91 0 94 0;
#X connect 92 0 91 0;
#X connect 93 0 85 0;
#X connect 95 0 97 0;
#X connect 96 0 81 0;
#X connect 97 0 93 0;
#X connect 98 0 103 1;
#X connect 99 0 100 0;
#X connect 100 0 103 0;
#X connect 101 0 106 1;
#X connect 102 0 98 0;
#X connect 103 0 101 0;
#X connect 104 0 106 0;
#X connect 105 0 108 0;
#X connect 106 0 105 0;
#X connect 107 0 99 0;
#X connect 109 0 146 0;
#X connect 110 0 115 1;
#X connect 111 0 112 0;
#X connect 112 0 115 0;
#X connect 113 0 118 1;
#X connect 114 0 110 0;
#X connect 115 0 113 0;
#X connect 116 0 118 0;
#X connect 117 0 120 0;
#X connect 118 0 117 0;
#X connect 119 0 111 0;
#X connect 121 0 147 0;
#X connect 122 0 127 1;
#X connect 123 0 124 0;
#X connect 124 0 127 0;
#X connect 125 0 130 1;
#X connect 126 0 122 0;
#X connect 127 0 125 0;
#X connect 128 0 130 0;
#X connect 129 0 132 0;
#X connect 130 0 129 0;
#X connect 131 0 123 0;
#X connect 133 0 148 0;
#X connect 134 0 139 1;
#X connect 135 0 136 0;
#X connect 136 0 139 0;
#X connect 137 0 142 1;
#X connect 138 0 134 0;
#X connect 139 0 137 0;
#X connect 140 0 142 0;
#X connect 141 0 144 0;
#X connect 142 0 141 0;
#X connect 143 0 135 0;
#X connect 145 0 149 0;
#X connect 146 0 107 0;
#X connect 147 0 119 0;
#X connect 148 0 131 0;
#X connect 149 0 143 0;
#X connect 150 0 167 0;
#X connect 151 0 152 0;
#X connect 152 0 19 0;
#X connect 153 0 155 0;
#X connect 154 0 156 0;
#X connect 155 0 63 0;
#X connect 156 0 76 0;
#X connect 157 0 162 0;
#X connect 158 0 163 0;
#X connect 159 0 164 0;
#X connect 160 0 165 0;
#X connect 161 0 166 0;
#X connect 162 0 88 0;
#X connect 163 0 102 0;
#X connect 164 0 114 0;
#X connect 165 0 126 0;
#X connect 166 0 138 0;
#X connect 167 0 20 0;
#X connect 171 0 10 0;
#X connect 172 0 174 0;
#X connect 172 1 173 0;
#X connect 172 2 180 0;
#X connect 172 3 179 0;
#X connect 172 4 184 0;
#X connect 172 5 183 0;
#X connect 172 6 188 0;
#X connect 172 7 187 0;
#X connect 173 0 176 0;
#X connect 174 0 175 0;
#X connect 175 0 177 0;
#X connect 176 0 178 0;
#X connect 179 0 192 0;
#X connect 180 0 191 0;
#X connect 183 0 194 0;
#X connect 184 0 193 0;
#X connect 187 0 196 0;
#X connect 188 0 195 0;
#X connect 191 0 181 0;
#X connect 192 0 182 0;
#X connect 193 0 185 0;
#X connect 194 0 186 0;
#X connect 195 0 189 0;
#X connect 196 0 190 0;
#X connect 205 0 34 0;
#X connect 206 0 172 0;
