#N canvas 568 79 636 618 10;
#X obj 14 49 inlet;
#X text 46 71 beats per minute;
#X floatatom 13 72 5 0 0 0 - - -;
#X text 9 7 maq.util.bpm.step;
#X text 8 21 beats per minute to ms per step;
#X floatatom 13 116 5 0 0 0 - - -;
#X text 50 115 positive values;
#X obj 13 139 maq.util.bpm.beat;
#X floatatom 13 162 5 0 0 0 - - -;
#X text 50 161 ms per beat;
#X obj 161 48 inlet;
#X floatatom 161 71 5 0 0 0 - - -;
#X text 196 69 steps per beat;
#X obj 13 93 maq.util.positive;
#X obj 12 187 / 1, f 43;
#X text 45 207 ms per step;
#X floatatom 11 207 5 0 0 0 - - -;
#X obj 11 229 outlet;
#X obj 161 91 maq.util.positive;
#X floatatom 161 114 5 0 0 0 - - -;
#X text 195 110 positive values;
#X obj 161 134 trigger bang float;
#X obj 161 157 bng 15 250 50 0 empty empty empty 17 7 0 10 -262144
-1 -1;
#X connect 0 0 2 0;
#X connect 2 0 13 0;
#X connect 5 0 7 0;
#X connect 7 0 8 0;
#X connect 8 0 14 0;
#X connect 10 0 11 0;
#X connect 11 0 18 0;
#X connect 13 0 5 0;
#X connect 14 0 16 0;
#X connect 16 0 17 0;
#X connect 18 0 19 0;
#X connect 19 0 21 0;
#X connect 21 0 22 0;
#X connect 21 1 14 1;
#X connect 22 0 14 0;
