#N canvas 222 121 297 411 10;
#X obj 14 49 inlet;
#X obj 15 325 outlet;
#X text 9 7 maq.util.bpm.beat;
#X text 8 21 beats per minute to ms per beat;
#X text 48 76 beats per minute;
#X floatatom 15 77 5 0 0 0 - - -;
#X floatatom 15 121 5 0 0 0 - - -;
#X text 52 120 positive values;
#X obj 15 189 / 1, f 18;
#X msg 15 167 1;
#X obj 15 145 trigger bang float;
#X floatatom 120 166 5 0 0 0 - - -;
#X text 58 214 min per beat;
#X floatatom 15 213 5 0 0 0 - - -;
#X obj 15 236 * 60;
#X floatatom 15 258 5 0 0 0 - - -;
#X text 50 257 s per beat;
#X obj 15 281 * 1000;
#X floatatom 15 303 5 0 0 0 - - -;
#X text 53 302 ms per beat;
#X obj 15 98 maq.util.positive;
#X connect 0 0 5 0;
#X connect 5 0 20 0;
#X connect 6 0 10 0;
#X connect 8 0 13 0;
#X connect 9 0 8 0;
#X connect 10 0 9 0;
#X connect 10 1 11 0;
#X connect 11 0 8 1;
#X connect 13 0 14 0;
#X connect 14 0 15 0;
#X connect 15 0 17 0;
#X connect 17 0 18 0;
#X connect 18 0 1 0;
#X connect 20 0 6 0;
