#N canvas -526 -1261 1548 1137 10;
#X obj 421 63 metro 1000;
#X obj 421 40 tgl 15 0 empty empty empty 17 7 0 10 -262144 -1 -1 0
1;
#X obj 421 86 bng 15 250 50 0 empty empty empty 17 7 0 10 -262144 -1
-1;
#X obj 421 156 + 1;
#X obj 421 109 float 0;
#X floatatom 421 134 5 0 0 0 - - -, f 5;
#X floatatom 421 178 5 0 0 0 - - -, f 5;
#X floatatom 495 142 5 0 0 0 - - -, f 5;
#X floatatom 420 222 5 0 0 0 - - -, f 5;
#X floatatom 544 167 5 0 0 0 - - -, f 5;
#X obj 420 200 mod 8;
#X msg 609 113 16;
#X msg 578 113 8;
#X msg 547 113 4;
#X obj 421 269 hradio 40 1 0 8 empty empty empty 0 -8 0 10 -262144
-1 -1 2;
#X obj 421 320 sel 0 1 2 3 4 5 6 7;
#X obj 421 651 float;
#X obj 448 490 vsl 15 128 0 127 0 0 empty empty empty 0 -9 0 10 -262144
-1 -1 6900 1;
#X floatatom 448 627 5 0 0 0 - - -, f 5;
#X floatatom 448 468 5 0 0 0 - - -, f 5;
#X floatatom 421 716 5 0 0 0 - - -, f 5;
#X obj 487 652 float;
#X obj 514 491 vsl 15 128 0 127 0 0 empty empty empty 0 -9 0 10 -262144
-1 -1 2800 1;
#X floatatom 514 628 5 0 0 0 - - -, f 5;
#X floatatom 514 469 5 0 0 0 - - -, f 5;
#X obj 565 655 float;
#X obj 592 494 vsl 15 128 0 127 0 0 empty empty empty 0 -9 0 10 -262144
-1 -1 5700 1;
#X floatatom 592 631 5 0 0 0 - - -, f 5;
#X floatatom 592 472 5 0 0 0 - - -, f 5;
#X obj 631 656 float;
#X obj 658 495 vsl 15 128 0 127 0 0 empty empty empty 0 -9 0 10 -262144
-1 -1 7300 1;
#X floatatom 658 632 5 0 0 0 - - -, f 5;
#X floatatom 658 473 5 0 0 0 - - -, f 5;
#X obj 718 659 float;
#X obj 745 498 vsl 15 128 0 127 0 0 empty empty empty 0 -9 0 10 -262144
-1 -1 6700 1;
#X floatatom 745 635 5 0 0 0 - - -, f 5;
#X floatatom 745 476 5 0 0 0 - - -, f 5;
#X obj 784 660 float;
#X obj 811 499 vsl 15 128 0 127 0 0 empty empty empty 0 -9 0 10 -262144
-1 -1 10700 1;
#X floatatom 811 636 5 0 0 0 - - -, f 5;
#X floatatom 811 477 5 0 0 0 - - -, f 5;
#X obj 862 663 float;
#X obj 889 502 vsl 15 128 0 127 0 0 empty empty empty 0 -9 0 10 -262144
-1 -1 4600 1;
#X floatatom 889 639 5 0 0 0 - - -, f 5;
#X floatatom 889 480 5 0 0 0 - - -, f 5;
#X obj 928 664 float;
#X obj 955 503 vsl 15 128 0 127 0 0 empty empty empty 0 -9 0 10 -262144
-1 -1 9800 1;
#X floatatom 955 640 5 0 0 0 - - -, f 5;
#X floatatom 955 481 5 0 0 0 - - -, f 5;
#X obj 421 743 mtof;
#X obj 421 769 osc~;
#X obj 421 814 dac~;
#X obj 841 271 bng 15 250 50 0 empty empty empty 17 7 0 10 -262144
-1 -1;
#X obj 447 428 random 127;
#X obj 514 428 random 127;
#X obj 592 429 random 127;
#X obj 659 428 random 127;
#X obj 745 427 random 127;
#X obj 812 427 random 127;
#X obj 887 428 random 127;
#X obj 954 428 random 127;
#X floatatom 1167 398 5 0 0 0 - - -, f 5;
#X floatatom 1206 398 5 0 0 0 - - -, f 5;
#X text 1141 396 min;
#X text 1249 398 max;
#X obj 1206 417 t b f;
#X obj 1206 439 - 0;
#X floatatom 1206 459 5 0 0 0 - - -, f 5;
#X obj 1206 479 abs;
#X floatatom 1206 500 5 0 0 0 - - -, f 5;
#X text 1242 501 range;
#X obj 1149 525 random 127;
#X obj 1149 500 bng 15 250 50 0 empty empty empty 17 7 0 10 -262144
-1 -1;
#X floatatom 1149 548 5 0 0 0 - - -, f 5;
#X obj 1149 568 + 0;
#X floatatom 1149 589 5 0 0 0 - - -, f 5;
#X text 1184 589 number inside the range;
#X connect 0 0 2 0;
#X connect 1 0 0 0;
#X connect 2 0 4 0;
#X connect 3 0 6 0;
#X connect 4 0 5 0;
#X connect 5 0 3 0;
#X connect 6 0 10 0;
#X connect 7 0 4 1;
#X connect 8 0 7 0;
#X connect 8 0 14 0;
#X connect 9 0 10 1;
#X connect 10 0 8 0;
#X connect 11 0 9 0;
#X connect 12 0 9 0;
#X connect 13 0 9 0;
#X connect 14 0 15 0;
#X connect 15 0 16 0;
#X connect 15 1 21 0;
#X connect 15 2 25 0;
#X connect 15 3 29 0;
#X connect 15 4 33 0;
#X connect 15 5 37 0;
#X connect 15 6 41 0;
#X connect 15 7 45 0;
#X connect 16 0 20 0;
#X connect 17 0 18 0;
#X connect 18 0 16 1;
#X connect 19 0 17 0;
#X connect 20 0 49 0;
#X connect 21 0 20 0;
#X connect 22 0 23 0;
#X connect 23 0 21 1;
#X connect 24 0 22 0;
#X connect 25 0 20 0;
#X connect 26 0 27 0;
#X connect 27 0 25 1;
#X connect 28 0 26 0;
#X connect 29 0 20 0;
#X connect 30 0 31 0;
#X connect 31 0 29 1;
#X connect 32 0 30 0;
#X connect 33 0 20 0;
#X connect 34 0 35 0;
#X connect 35 0 33 1;
#X connect 36 0 34 0;
#X connect 37 0 20 0;
#X connect 38 0 39 0;
#X connect 39 0 37 1;
#X connect 40 0 38 0;
#X connect 41 0 20 0;
#X connect 42 0 43 0;
#X connect 43 0 41 1;
#X connect 44 0 42 0;
#X connect 45 0 20 0;
#X connect 46 0 47 0;
#X connect 47 0 45 1;
#X connect 48 0 46 0;
#X connect 49 0 50 0;
#X connect 50 0 51 0;
#X connect 50 0 51 1;
#X connect 52 0 53 0;
#X connect 52 0 54 0;
#X connect 52 0 55 0;
#X connect 52 0 56 0;
#X connect 52 0 57 0;
#X connect 52 0 58 0;
#X connect 52 0 59 0;
#X connect 52 0 60 0;
#X connect 53 0 19 0;
#X connect 54 0 24 0;
#X connect 55 0 28 0;
#X connect 56 0 32 0;
#X connect 57 0 36 0;
#X connect 58 0 40 0;
#X connect 59 0 44 0;
#X connect 60 0 48 0;
#X connect 61 0 66 0;
#X connect 61 0 74 1;
#X connect 62 0 65 0;
#X connect 65 0 66 0;
#X connect 65 1 66 1;
#X connect 66 0 67 0;
#X connect 67 0 68 0;
#X connect 68 0 69 0;
#X connect 69 0 71 1;
#X connect 71 0 73 0;
#X connect 72 0 71 0;
#X connect 73 0 74 0;
#X connect 74 0 75 0;
