#N canvas 222 121 347 322 10;
#X obj 15 86 inlet;
#X floatatom 16 114 5 0 0 0 - - -;
#X obj 16 136 abs;
#X floatatom 16 159 5 0 0 0 - - -;
#X obj 16 181 route 0;
#X text 39 135 foldover negative numbers;
#X text 65 184 filter out zero;
#X text 53 158 non-negative values;
#X obj 55 225 outlet;
#X floatatom 55 203 5 0 0 0 - - -;
#X text 92 202 positive values;
#X text 3 5 maq.util.positive;
#X text 1 19 outputs only positive numbers;
#X text 2 35 negative numbers get turned into positive;
#X text 2 51 zero gets filtered out;
#X text 49 113 number;
#X connect 0 0 1 0;
#X connect 1 0 2 0;
#X connect 2 0 3 0;
#X connect 3 0 4 0;
#X connect 4 1 9 0;
#X connect 9 0 8 0;
