#N canvas 118 152 704 542 10;
#X obj 141 93 tgl 15 0 empty empty empty 17 7 0 10 -262144 -1 -1 1
1;
#X obj 143 117 metro 500;
#X obj 147 149 bng 15 250 50 0 empty empty empty 17 7 0 10 -262144
-1 -1;
#X obj 143 322 makenote;
#X obj 146 183 random 127;
#X floatatom 146 217 5 0 0 0 - - -, f 5;
#X obj 158 270 127;
#X obj 156 247 bng 15 250 50 0 empty empty empty 17 7 0 10 -262144
-1 -1;
#X obj 204 247 bng 15 250 50 0 empty empty empty 17 7 0 10 -262144
-1 -1;
#X obj 151 426 noteout;
#X obj 261 317 bng 15 250 50 0 empty empty empty 17 7 0 10 -262144
-1 -1;
#X obj 263 340 1;
#X obj 206 270 127;
#X connect 0 0 1 0;
#X connect 1 0 2 0;
#X connect 2 0 4 0;
#X connect 3 0 9 0;
#X connect 3 1 9 1;
#X connect 4 0 5 0;
#X connect 5 0 3 0;
#X connect 5 0 7 0;
#X connect 5 0 8 0;
#X connect 5 0 10 0;
#X connect 6 0 3 1;
#X connect 7 0 6 0;
#X connect 8 0 12 0;
#X connect 10 0 11 0;
#X connect 11 0 9 2;
#X connect 12 0 3 2;
