#N canvas 120 23 1207 667 10;
#X obj 246 110 metro 1000;
#X obj 246 88 tgl 15 0 empty empty empty 17 7 0 10 -262144 -1 -1 0
1;
#X obj 236 275 pack 0 0 0 0 0 0 0 0, f 66;
#X obj 234 213 bng 15 250 50 0 empty empty empty 17 7 0 10 -262144
-1 -1;
#X obj 367 251 random 2;
#X obj 432 251 random 2;
#X obj 498 250 random 2;
#X obj 563 250 random 2;
#X obj 628 250 random 2;
#X obj 695 249 random 2;
#X floatatom 131 469 5 0 0 0 - - -, f 5;
#X obj 128 406 tgl 15 0 empty empty empty 17 7 0 10 -262144 -1 -1 0
1;
#X floatatom 158 407 5 0 0 0 - - -, f 5;
#X obj 236 251 random 2;
#X obj 302 251 random 2;
#X floatatom 347 207 5 0 0 0 - - -, f 5;
#X obj 347 163 loadbang;
#X msg 347 186 2;
#X obj 795 273 pack 0 0 0 0 0 0 0 0, f 66;
#X obj 795 208 bng 15 250 50 0 empty empty empty 17 7 0 10 -262144
-1 -1;
#X obj 926 249 random 2;
#X obj 991 249 random 2;
#X obj 1057 248 random 2;
#X obj 1122 248 random 2;
#X obj 1187 248 random 2;
#X obj 1254 247 random 2;
#X obj 795 249 random 2;
#X obj 861 249 random 2;
#X floatatom 906 205 5 0 0 0 - - -, f 5;
#X obj 906 161 loadbang;
#X msg 906 184 128;
#X text 379 426 inputs:;
#X text 381 446 on/off sequencerm 0-1;
#X text 380 469 time between steps \, ms;
#X text 382 490 on/off per step \, 8x 0-1;
#X text 382 511 value per step \, 8x 0-127;
#X obj 131 445 maq.util.eight-step-seq;
#X connect 0 0 3 0;
#X connect 0 0 19 0;
#X connect 1 0 0 0;
#X connect 2 0 36 2;
#X connect 3 0 4 0;
#X connect 3 0 5 0;
#X connect 3 0 6 0;
#X connect 3 0 7 0;
#X connect 3 0 8 0;
#X connect 3 0 9 0;
#X connect 3 0 13 0;
#X connect 3 0 14 0;
#X connect 4 0 2 2;
#X connect 5 0 2 3;
#X connect 6 0 2 4;
#X connect 7 0 2 5;
#X connect 8 0 2 6;
#X connect 9 0 2 7;
#X connect 11 0 36 0;
#X connect 12 0 36 1;
#X connect 13 0 2 0;
#X connect 14 0 2 1;
#X connect 15 0 13 1;
#X connect 15 0 14 1;
#X connect 15 0 4 1;
#X connect 15 0 5 1;
#X connect 15 0 6 1;
#X connect 15 0 7 1;
#X connect 15 0 8 1;
#X connect 15 0 9 1;
#X connect 16 0 17 0;
#X connect 17 0 15 0;
#X connect 18 0 36 3;
#X connect 19 0 20 0;
#X connect 19 0 21 0;
#X connect 19 0 22 0;
#X connect 19 0 23 0;
#X connect 19 0 24 0;
#X connect 19 0 25 0;
#X connect 19 0 26 0;
#X connect 19 0 27 0;
#X connect 20 0 18 2;
#X connect 21 0 18 3;
#X connect 22 0 18 4;
#X connect 23 0 18 5;
#X connect 24 0 18 6;
#X connect 25 0 18 7;
#X connect 26 0 18 0;
#X connect 27 0 18 1;
#X connect 28 0 26 1;
#X connect 28 0 27 1;
#X connect 28 0 20 1;
#X connect 28 0 21 1;
#X connect 28 0 22 1;
#X connect 28 0 23 1;
#X connect 28 0 24 1;
#X connect 28 0 25 1;
#X connect 29 0 30 0;
#X connect 30 0 28 0;
#X connect 36 0 10 0;
